<svg width="32" height="29" viewBox="0 0 32 29" fill="none" xmlns="http://www.w3.org/2000/svg">
<path fill-rule="evenodd" clip-rule="evenodd" d="M29.1061 0.226115C29.9925 -0.128411 30.8499 -0.0624361 31.3957 0.398665C31.7873 0.728541 32.1919 1.39989 31.9008 2.7194L27.1294 27.4253C27.0893 27.5282 26.7065 28.4367 25.7494 28.8282C25.4685 28.9427 25.1745 29 24.8681 29C24.4714 29 24.0559 28.9043 23.6221 28.7129L23.47 28.6223L17.0821 23.6596L13.125 27.3158C12.7728 27.5913 12.2284 27.7834 11.6811 27.5732C11.0573 27.384 10.7014 26.4647 10.4831 25.765C10.16 24.7292 8.78656 20.174 8.2393 18.3589C8.19364 18.2075 8.15373 18.0751 8.12066 17.9655L1.64833 15.7578C1.48676 15.6991 0.163616 15.1902 0.0122335 13.9613C-0.157344 12.5983 1.48894 11.9864 1.67744 11.9211C2.71383 11.4767 28.1723 0.598766 29.1046 0.226115H29.1061ZM11.6454 24.6485L13.8288 18.8485L26.2014 5.07348L9.462 17.3985L11.6454 24.6485Z" fill="black"/>
</svg>
