<svg width="32" height="32" viewBox="0 0 32 32" fill="none" xmlns="http://www.w3.org/2000/svg">
<path fill-rule="evenodd" clip-rule="evenodd" d="M26.1779 0H6.72596C3.27404 0 0 2.70673 0 6.15385V25.6154C0 29.0625 3.27404 32 6.72596 32H26.1827C29.6298 32 32 29.0625 32 25.6154V6.15385C32 2.70673 29.6298 0 26.1779 0ZM25 18.4712C26.75 20.0962 27.1154 20.8894 27.1731 20.9856C27.899 22.1923 26.3702 22.2837 26.3702 22.2837L23.4471 22.3269C23.4471 22.3269 22.8173 22.4519 21.9904 21.8798C20.8942 21.1346 19.8654 19.1827 19.0577 19.4327C18.2452 19.6923 18.2692 21.4519 18.2692 21.4519C18.2692 21.4519 18.274 21.7596 18.0913 21.9615C17.8894 22.1731 17.4952 22.1538 17.4952 22.1538H16.1827C16.1827 22.1538 13.2933 22.3942 10.75 19.7452C7.97596 16.8558 5.52885 11.1587 5.52885 11.1587C5.52885 11.1587 5.38942 10.7981 5.53846 10.6154C5.71154 10.4135 6.18269 10.4038 6.18269 10.4038L9.3125 10.3894C9.3125 10.3894 9.60577 10.4423 9.81731 10.5962C9.99039 10.7212 10.0913 10.9615 10.0913 10.9615C10.0913 10.9615 10.5962 12.2452 11.2644 13.399C12.5721 15.6587 13.1827 16.1538 13.625 15.9135C14.274 15.5577 14.0769 12.7212 14.0769 12.7212C14.0769 12.7212 14.0913 11.6875 13.75 11.226C13.4904 10.875 13 10.7692 12.7788 10.7404C12.601 10.7163 12.8942 10.3077 13.2692 10.125C13.8317 9.85096 14.8269 9.83173 16 9.84615C16.9135 9.85577 17.1779 9.91346 17.5337 10C18.6154 10.2596 18.25 11.2644 18.25 13.6779C18.25 14.4519 18.1106 15.5385 18.6683 15.899C18.9087 16.0529 19.4952 15.9231 20.9567 13.4327C21.6538 12.25 22.1731 10.8654 22.1731 10.8654C22.1731 10.8654 22.2885 10.6154 22.4663 10.5096C22.649 10.4038 22.8942 10.4375 22.8942 10.4375L26.1875 10.4135C26.1875 10.4135 27.1731 10.2981 27.3365 10.7452C27.5048 11.2115 26.9663 12.3077 25.6202 14.101C23.4087 17.0433 23.1635 16.7692 25 18.4712Z" fill="black"/>
</svg>
